<?xml version="1.0" encoding="UTF-8" standalone="no"?>
<!-- Created with Inkscape (http://www.inkscape.org/) -->
<svg
   xmlns:dc="http://purl.org/dc/elements/1.1/"
   xmlns:cc="http://web.resource.org/cc/"
   xmlns:rdf="http://www.w3.org/1999/02/22-rdf-syntax-ns#"
   xmlns:svg="http://www.w3.org/2000/svg"
   xmlns="http://www.w3.org/2000/svg"
   xmlns:sodipodi="http://sodipodi.sourceforge.net/DTD/sodipodi-0.dtd"
   xmlns:inkscape="http://www.inkscape.org/namespaces/inkscape"
   width="210mm"
   height="297mm"
   id="svg1901"
   sodipodi:version="0.32"
   inkscape:version="0.45.1"
   sodipodi:docname="progress.svg"
   sodipodi:docbase="S:\AgilEFant\Kuvat\Icons"
   inkscape:output_extension="org.inkscape.output.svg.inkscape">
  <defs
     id="defs1903" />
  <sodipodi:namedview
     id="base"
     pagecolor="#ffffff"
     bordercolor="#666666"
     borderopacity="1.0"
     inkscape:pageopacity="0.0"
     inkscape:pageshadow="2"
     inkscape:zoom="1.979899"
     inkscape:cx="309.4533"
     inkscape:cy="760.51184"
     inkscape:document-units="px"
     inkscape:current-layer="layer1"
     gridtolerance="10000"
     inkscape:window-width="877"
     inkscape:window-height="739"
     inkscape:window-x="286"
     inkscape:window-y="286" />
  <metadata
     id="metadata1906">
    <rdf:RDF>
      <cc:Work
         rdf:about="">
        <dc:format>image/svg+xml</dc:format>
        <dc:type
           rdf:resource="http://purl.org/dc/dcmitype/StillImage" />
      </cc:Work>
    </rdf:RDF>
  </metadata>
  <g
     inkscape:label="Taso 1"
     inkscape:groupmode="layer"
     id="layer1"
     style="opacity:1">
    <path
       style="fill:#6166cc;fill-rule:evenodd;stroke:none;stroke-width:1.16346371px;stroke-linecap:butt;stroke-linejoin:miter;stroke-opacity:1;fill-opacity:1"
       d="M 307.359,251.48917 C 304.38947,233.05091 310.80047,201.09327 356.05077,199.50956 C 391.99246,198.25164 437.55511,222.68511 438.30882,277.37758 C 438.36975,281.79906 454.55062,279.51833 454.55062,279.51833 L 414.61518,308.33491 L 368.15867,280.23191 L 385.95801,279.72683 C 385.95801,279.72683 391.59782,268.02858 386.49401,254.83013 C 370.55448,213.61054 308.75427,209.9837 307.359,251.48917 z "
       id="path2157"
       sodipodi:nodetypes="cssccccsc" />
    <path
       style="opacity:1;fill:#c54040;fill-opacity:1;fill-rule:evenodd;stroke:none;stroke-width:1.16346371px;stroke-linecap:butt;stroke-linejoin:miter;stroke-opacity:1"
       d="M 414.71844,307.2593 C 417.68797,325.69756 411.27697,357.6552 366.02667,359.23891 C 330.08498,360.49683 284.52233,336.06336 283.76862,281.37089 C 283.70769,276.94941 267.52682,279.23014 267.52682,279.23014 L 307.46226,250.41356 L 353.91877,278.51656 L 336.11943,279.02164 C 336.11943,279.02164 330.47962,290.71989 335.58343,303.91834 C 351.52296,345.13793 413.32317,348.76477 414.71844,307.2593 z "
       id="path3134"
       sodipodi:nodetypes="cssccccsc" />
  </g>
</svg>
